<?xml version="1.0" encoding="utf-8" ?>
<svg xmlns="http://www.w3.org/2000/svg" xmlns:xlink="http://www.w3.org/1999/xlink" width="1024" height="1024">
	<path fill="#7A4F00" d="M631.656 639.502C598.644 656.54 561.558 665.023 524.598 666.921Q521.357 667.077 518.114 667.152Q514.871 667.228 511.626 667.224Q508.382 667.22 505.139 667.136Q501.895 667.052 498.655 666.888Q495.415 666.725 492.18 666.481Q488.945 666.238 485.717 665.915Q482.488 665.591 479.269 665.189Q476.05 664.787 472.841 664.305Q469.633 663.823 466.438 663.263Q463.242 662.703 460.061 662.063Q456.88 661.425 453.716 660.708Q450.552 659.99 447.407 659.196Q444.261 658.401 441.136 657.529Q438.011 656.657 434.909 655.708Q431.806 654.76 428.728 653.735Q425.65 652.71 422.598 651.61Q419.546 650.51 416.522 649.335Q413.498 648.16 410.503 646.91Q407.509 645.661 404.547 644.339Q401.584 643.016 398.655 641.621Q395.726 640.226 392.832 638.76Q389.938 637.293 387.081 635.755Q384.225 634.218 381.406 632.611Q378.588 631.003 375.81 629.327Q373.033 627.651 370.297 625.906Q367.562 624.162 364.87 622.351Q362.178 620.54 359.531 618.664Q356.885 616.787 354.286 614.846Q351.686 612.904 349.135 610.9Q346.584 608.895 344.084 606.828Q341.583 604.761 339.134 602.633Q336.685 600.505 334.289 598.318Q332.193 596.46 330.144 594.551Q328.095 592.642 326.093 590.683Q324.091 588.724 322.139 586.716Q320.186 584.709 318.283 582.653Q316.38 580.598 314.529 578.497Q312.677 576.396 310.878 574.249Q309.079 572.103 307.333 569.913Q305.587 567.723 303.895 565.491Q302.204 563.259 300.568 560.985Q298.932 558.712 297.352 556.399Q295.773 554.086 294.251 551.735Q292.729 549.384 291.265 546.997Q289.801 544.609 288.397 542.186Q286.992 539.763 285.648 537.306Q284.304 534.849 283.02 532.359Q281.737 529.87 280.515 527.35Q279.293 524.83 278.134 522.28Q276.974 519.731 275.878 517.153Q274.782 514.576 273.749 511.973Q272.717 509.369 271.749 506.741Q270.781 504.113 269.878 501.462Q268.975 498.811 268.137 496.138Q267.3 493.466 266.528 490.773Q265.757 488.081 265.052 485.37Q264.347 482.66 263.709 479.933Q263.071 477.205 262.501 474.463Q261.93 471.721 261.427 468.966Q260.924 466.211 260.489 463.444Q260.054 460.677 259.688 457.901Q259.321 455.124 259.023 452.339Q258.725 449.555 258.495 446.763Q258.266 443.972 258.105 441.176C257.295 424.562 257.739 407.518 260.433 391.081C267.426 348.403 289.267 307.816 318.223 276.042C358.081 232.305 412.536 204.986 470.859 196.21C482.457 194.465 494.068 193.748 505.775 193.216C510.39 192.603 515.615 192.885 520.285 192.991Q528.931 193.19 537.546 193.946Q546.162 194.703 554.71 196.013Q563.259 197.324 571.705 199.183Q580.151 201.042 588.46 203.442Q591.102 204.203 593.727 205.022Q596.352 205.84 598.958 206.715Q601.565 207.59 604.152 208.521Q606.739 209.452 609.305 210.438Q611.871 211.425 614.416 212.467Q616.96 213.509 619.481 214.606Q622.003 215.703 624.5 216.854Q626.996 218.005 629.468 219.21Q631.939 220.414 634.384 221.672Q636.829 222.93 639.246 224.241Q641.663 225.551 644.051 226.914Q646.439 228.276 648.797 229.69Q651.155 231.104 653.482 232.569Q655.809 234.033 658.104 235.547Q660.399 237.062 662.66 238.626Q664.922 240.189 667.149 241.802Q669.376 243.414 671.568 245.074Q673.759 246.734 675.914 248.441Q678.07 250.148 680.188 251.902Q682.306 253.655 684.385 255.454Q686.465 257.252 688.505 259.095Q690.545 260.939 692.545 262.826Q694.544 264.713 696.503 266.642Q698.461 268.572 700.378 270.544Q702.294 272.515 704.167 274.528Q706.04 276.54 707.869 278.593Q709.699 280.646 711.483 282.737Q713.268 284.829 715.006 286.959Q716.745 289.089 718.437 291.256Q720.13 293.423 721.775 295.626Q723.42 297.829 725.017 300.067Q726.614 302.305 728.162 304.577C734.513 313.831 739.949 323.576 745.323 333.418Q707.471 332.79 669.615 333.072C663.284 326.676 657.685 319.567 651.245 313.223C626.646 288.998 597.869 272.668 564.566 263.588Q562.148 262.941 559.716 262.354Q557.283 261.767 554.836 261.239Q552.39 260.711 549.932 260.243Q547.473 259.775 545.004 259.368Q542.535 258.96 540.056 258.613Q537.578 258.266 535.092 257.979Q532.605 257.693 530.113 257.467Q527.621 257.241 525.123 257.076Q522.626 256.911 520.126 256.808Q517.625 256.704 515.123 256.661Q512.621 256.619 510.118 256.637Q507.615 256.656 505.114 256.735Q502.613 256.815 500.114 256.956Q497.615 257.096 495.121 257.298Q492.626 257.5 490.138 257.762Q487.649 258.025 485.167 258.348Q482.685 258.672 480.212 259.055Q477.739 259.439 475.276 259.883Q472.814 260.328 470.362 260.832Q467.911 261.336 465.473 261.9Q463.034 262.464 460.611 263.087Q458.187 263.71 455.779 264.393Q453.371 265.075 450.981 265.816Q448.59 266.557 446.219 267.356Q443.847 268.155 441.496 269.012Q439.144 269.869 436.814 270.783Q434.485 271.697 432.178 272.667Q429.871 273.638 427.589 274.665Q425.306 275.691 423.05 276.773Q420.793 277.856 418.564 278.992Q416.334 280.129 414.133 281.32Q411.932 282.512 409.761 283.756C371.734 305.555 340.316 341.984 328.838 384.734C317.292 427.743 324.477 472.936 346.778 511.284C372.822 556.07 418.472 585.362 467.848 598.414C514.749 609.305 555.449 602.881 599.371 584.766C610.07 603.079 621.4 620.916 631.656 639.502Z"/>
	<path fill="#7A4F00" d="M498.609 383.555C498.249 369.365 498.57 355.095 498.534 340.896L498.321 271.062Q512.418 270.962 526.514 271.128L526.554 383.701L527.427 384.145C539.103 390.115 547.756 398.841 551.875 411.517L598.521 411.495L598.596 438.606C582.902 438.37 567.18 438.544 551.483 438.523C550.781 440.773 549.64 442.881 548.616 444.999C544.297 452.431 538.423 458.773 530.594 462.525C520.202 467.507 508.267 467.625 497.516 463.719C486.791 459.821 477.655 452.169 472.923 441.671C468.177 431.141 468.151 418.487 472.273 407.755C477.151 395.053 486.663 388.899 498.609 383.555Z"/>
	<path fill="#7A4F00" d="M427.891 353.531C421.938 354.506 415.988 354.082 410.552 351.253C404.849 348.286 400.943 343.055 399.21 336.914Q399.033 336.298 398.886 335.675Q398.739 335.051 398.623 334.421Q398.507 333.791 398.423 333.156Q398.338 332.521 398.285 331.883Q398.232 331.245 398.21 330.604Q398.189 329.964 398.199 329.324Q398.209 328.683 398.251 328.044Q398.292 327.405 398.365 326.768Q398.439 326.132 398.543 325.5Q398.648 324.868 398.783 324.242Q398.919 323.616 399.085 322.997Q399.251 322.378 399.448 321.769Q399.645 321.159 399.871 320.56Q400.098 319.961 400.354 319.373Q400.609 318.786 400.894 318.212Q401.178 317.638 401.491 317.079C405.218 310.488 410.836 307.522 417.854 305.61C423.268 305.076 428.595 305.48 433.582 307.839Q434.12 308.088 434.645 308.364Q435.169 308.64 435.679 308.942Q436.189 309.245 436.683 309.573Q437.176 309.901 437.652 310.255Q438.128 310.608 438.586 310.985Q439.043 311.362 439.48 311.762Q439.918 312.163 440.334 312.585Q440.75 313.007 441.144 313.45Q441.539 313.893 441.909 314.355Q442.28 314.818 442.627 315.298Q442.973 315.779 443.295 316.277Q443.616 316.776 443.912 317.289Q444.207 317.803 444.476 318.332Q444.745 318.86 444.986 319.402Q445.227 319.943 445.44 320.496Q445.654 321.05 445.838 321.613Q446.036 322.228 446.202 322.853Q446.368 323.478 446.502 324.11Q446.637 324.742 446.738 325.38Q446.84 326.019 446.909 326.661Q446.978 327.304 447.015 327.949Q447.051 328.595 447.055 329.241Q447.058 329.887 447.029 330.533Q446.999 331.179 446.937 331.822Q446.875 332.466 446.78 333.105Q446.685 333.744 446.557 334.378Q446.43 335.012 446.27 335.638Q446.111 336.264 445.92 336.882Q445.729 337.499 445.506 338.106Q445.284 338.713 445.031 339.308Q444.778 339.903 444.495 340.484Q444.212 341.065 443.9 341.631C440.311 348.108 434.784 351.476 427.891 353.531Z"/>
	<path fill="#7A4F00" d="M691.598 396.484Q728.806 396.201 766.015 396.354L766.382 396.728C768.801 412.443 769.048 441.44 765.989 457.486L691.719 457.541C696.172 437.459 695.141 416.601 691.598 396.484Z"/>
	<path fill="#7A4F00" d="M380.169 449.469C375.092 449.77 370.27 449.17 365.629 446.958Q365.09 446.703 364.565 446.421Q364.039 446.139 363.529 445.831Q363.018 445.523 362.524 445.19Q362.029 444.857 361.552 444.499Q361.075 444.141 360.617 443.76Q360.158 443.379 359.72 442.975Q359.281 442.572 358.863 442.146Q358.445 441.721 358.049 441.275Q357.653 440.83 357.28 440.365Q356.907 439.9 356.558 439.416Q356.209 438.933 355.884 438.433Q355.56 437.933 355.261 437.417Q354.962 436.901 354.689 436.371Q354.416 435.841 354.171 435.297Q353.925 434.754 353.707 434.199Q353.489 433.644 353.299 433.079C351.193 426.828 351.607 419.719 354.762 413.886C358.559 406.865 364.908 403.724 372.241 401.635C378.496 401.17 384.238 401.838 389.678 405.247Q390.181 405.567 390.668 405.912Q391.154 406.257 391.623 406.626Q392.092 406.994 392.541 407.386Q392.991 407.778 393.42 408.192Q393.849 408.607 394.257 409.042Q394.665 409.477 395.05 409.932Q395.436 410.387 395.798 410.861Q396.16 411.335 396.498 411.826Q396.835 412.318 397.148 412.825Q397.461 413.333 397.748 413.856Q398.034 414.379 398.295 414.916Q398.555 415.452 398.788 416.001Q399.02 416.55 399.225 417.111Q399.43 417.671 399.607 418.24Q399.783 418.81 399.931 419.388Q400.079 419.965 400.197 420.55Q400.325 421.138 400.424 421.732Q400.523 422.326 400.592 422.924Q400.662 423.522 400.702 424.122Q400.743 424.723 400.753 425.325Q400.764 425.927 400.745 426.528Q400.726 427.13 400.678 427.73Q400.629 428.33 400.551 428.927Q400.474 429.524 400.367 430.116Q400.26 430.709 400.124 431.295Q399.988 431.881 399.823 432.46Q399.658 433.039 399.465 433.61Q399.273 434.18 399.052 434.74Q398.831 435.3 398.583 435.849Q398.336 436.397 398.061 436.933Q397.787 437.469 397.486 437.99Q397.186 438.512 396.86 439.018C392.872 445.128 387.103 448.026 380.169 449.469Z"/>
	<path fill="#7A4F00" d="M426.314 551.941Q425.334 552.072 424.346 552.123Q423.359 552.173 422.37 552.142Q421.382 552.111 420.399 551.999Q419.417 551.886 418.447 551.693Q417.477 551.5 416.526 551.228Q415.576 550.956 414.651 550.607Q413.726 550.257 412.832 549.833Q411.939 549.408 411.084 548.912C405.625 545.804 401.554 540.738 399.94 534.645C398.283 528.39 399.104 521.353 402.402 515.76C406.087 509.51 411.946 506.421 418.721 504.628C424.597 504.216 430.315 504.959 435.454 508.042Q435.932 508.33 436.395 508.641Q436.858 508.952 437.305 509.285Q437.752 509.618 438.182 509.974Q438.612 510.329 439.024 510.705Q439.435 511.081 439.828 511.477Q440.221 511.872 440.594 512.287Q440.967 512.702 441.318 513.135Q441.67 513.568 442 514.017Q442.33 514.467 442.637 514.932Q442.945 515.398 443.229 515.878Q443.513 516.358 443.772 516.851Q444.032 517.344 444.267 517.85Q444.503 518.356 444.712 518.873Q444.922 519.389 445.106 519.916Q445.29 520.442 445.448 520.977Q445.606 521.512 445.737 522.054Q445.886 522.661 446.005 523.274Q446.124 523.887 446.212 524.505Q446.3 525.124 446.357 525.746Q446.414 526.368 446.44 526.992Q446.466 527.616 446.46 528.241Q446.454 528.865 446.418 529.489Q446.381 530.112 446.313 530.733Q446.245 531.354 446.146 531.971Q446.047 532.588 445.917 533.199Q445.787 533.81 445.627 534.414Q445.467 535.017 445.277 535.612Q445.087 536.207 444.867 536.792Q444.647 537.377 444.398 537.95Q444.15 538.523 443.872 539.082Q443.595 539.642 443.29 540.188Q442.986 540.733 442.654 541.262C438.818 547.319 433.1 550.358 426.314 551.941Z"/>
	<path fill="#7A4F00" d="M601.007 580.424C600.639 559.648 601.033 538.8 601.075 518.018C649.644 517.835 698.272 518.606 746.829 517.96Q741.635 528.404 735.57 538.368Q729.505 548.332 722.613 557.743C716.69 565.256 709.98 574.682 702.494 580.559L601.007 580.424Z"/>
	<path fill="#7A4F00" d="M517.139 587.942C511.097 588.946 505.192 588.094 499.92 584.85Q499.406 584.538 498.908 584.201Q498.409 583.864 497.928 583.503Q497.447 583.141 496.985 582.757Q496.522 582.372 496.08 581.965Q495.637 581.558 495.214 581.13Q494.792 580.701 494.392 580.252Q493.991 579.804 493.613 579.336Q493.235 578.868 492.881 578.381Q492.527 577.895 492.197 577.392Q491.867 576.889 491.563 576.371Q491.258 575.852 490.98 575.319Q490.701 574.786 490.449 574.239Q490.198 573.693 489.973 573.135Q489.748 572.577 489.552 572.009Q489.355 571.44 489.187 570.863Q489.019 570.285 488.879 569.7C487.395 563.252 488.463 555.856 492.211 550.343C495.973 544.809 501.441 542.299 507.819 541.096C513.157 540.55 518.512 541.214 523.313 543.746Q523.866 544.04 524.404 544.362Q524.941 544.684 525.461 545.034Q525.982 545.383 526.483 545.759Q526.984 546.135 527.466 546.536Q527.947 546.937 528.407 547.363Q528.867 547.788 529.305 548.237Q529.743 548.685 530.156 549.156Q530.57 549.626 530.959 550.117Q531.348 550.609 531.712 551.119Q532.075 551.63 532.411 552.159Q532.748 552.687 533.056 553.233Q533.365 553.778 533.645 554.338Q533.926 554.899 534.177 555.473Q534.427 556.047 534.648 556.634Q534.87 557.22 535.06 557.817Q535.25 558.414 535.41 559.02Q535.557 559.564 535.677 560.115Q535.797 560.666 535.89 561.222Q535.982 561.778 536.047 562.339Q536.111 562.899 536.147 563.461Q536.184 564.024 536.192 564.588Q536.2 565.151 536.18 565.715Q536.16 566.278 536.112 566.84Q536.064 567.402 535.988 567.961Q535.912 568.519 535.808 569.074Q535.704 569.628 535.572 570.176Q535.441 570.724 535.282 571.265Q535.123 571.806 534.938 572.339Q534.752 572.871 534.54 573.394Q534.328 573.916 534.09 574.427Q533.853 574.939 533.59 575.437Q533.327 575.936 533.039 576.421C529.512 582.454 523.782 586.184 517.139 587.942Z"/>
	<path fill="#7A4F00" d="M433.797 779.108C425.001 787.051 414.648 792.5 402.83 794.169C388.358 796.212 372.003 792.838 360.312 783.846C349.831 775.784 343.55 763.793 341.871 750.763C339.969 735.999 343.231 720.314 352.578 708.504C361.92 696.699 374.944 691.366 389.587 689.689Q390.526 689.578 391.47 689.52C407.827 688.418 421.559 694.132 433.603 704.884C429.8 709.794 425.409 714.366 421.417 719.141C415.43 712.949 408.218 708.41 399.569 707.236C390.664 706.027 381.213 707.951 374.004 713.461C366.754 719.003 362.691 727.292 361.516 736.233C360.177 746.427 361.735 757.316 368.144 765.626C373.538 772.622 381.631 776.711 390.337 777.714C400.44 778.879 408.897 775.668 416.752 769.474L421.125 765.076Q427.673 771.9 433.797 779.108Z"/>
	<path fill="#7A4F00" d="M595.246 794.797C582.258 796 567.082 791.812 556.981 783.462C546.393 774.71 540.006 761.671 538.704 748.075C537.338 733.816 541.116 718.438 550.407 707.334C560.269 695.549 573.548 691.069 588.437 689.706C602.249 688.923 616.153 692.274 627.03 701.126C638.029 710.077 643.892 722.844 645.19 736.812C646.524 751.157 642.472 765.817 633.119 776.897C623.248 788.59 610.147 793.437 595.246 794.797ZM587.226 706.595C576.995 708.892 568.745 712.517 562.976 721.754C557.41 730.667 556.091 742.166 558.517 752.31C560.612 761.068 565.764 768.725 573.548 773.373C581.11 777.889 589.566 778.879 598.172 777.851C607.654 775.87 615.144 772.195 620.64 763.915C626.391 755.251 628.012 744.249 625.861 734.159C623.906 724.992 618.947 716.726 610.933 711.659C603.89 707.205 595.428 705.904 587.226 706.595Z"/>
	<path fill="#7A4F00" d="M260.112 794.007C259.252 773.707 260.034 753.119 259.924 732.784L259.785 706.296C259.774 701.642 259.445 696.516 260.071 691.913C260.23 690.748 260.522 690.863 261.415 690.194C283.732 689.478 306.197 690.238 328.535 690.118L328.511 706.06L278.484 706.058L278.517 732.01L321.154 731.99Q321.255 740.498 321.06 749.005C306.882 748.733 292.669 748.906 278.488 748.922L278.521 754.394L278.525 777.829C295.428 776.954 312.651 777.62 329.589 777.67L329.601 794.054L260.112 794.007Z"/>
	<path fill="#7A4F00" d="M447.347 690.47L453.096 690.277C468.251 689.576 492.15 688.197 506.099 694.198Q506.755 694.473 507.397 694.781Q508.038 695.088 508.664 695.427Q509.289 695.766 509.897 696.135Q510.505 696.505 511.094 696.905Q511.683 697.304 512.251 697.732Q512.819 698.16 513.365 698.616Q513.912 699.072 514.434 699.555Q514.957 700.037 515.456 700.545Q515.954 701.053 516.426 701.585Q516.899 702.117 517.344 702.672Q517.789 703.226 518.207 703.803Q518.624 704.379 519.012 704.975Q519.4 705.572 519.758 706.186Q520.116 706.801 520.443 707.433Q520.77 708.065 521.065 708.712Q521.36 709.36 521.623 710.021C524.871 718.265 524.746 728.137 521.109 736.23C517.048 745.266 509.889 750.023 500.89 753.402C511.613 766.214 521.145 780.206 530.625 793.956Q519.877 793.61 509.125 793.753C508.173 793.436 507.862 793.268 507.18 792.485C503.853 788.668 501.154 783.925 498.182 779.777L480.837 755.939L466.336 756.015L466.037 793.988C459.878 793.804 453.761 793.86 447.602 794.012C447.13 759.515 447.499 724.973 447.347 690.47ZM475.065 706.723C472.088 706.823 469.105 706.968 466.127 707.018Q466.335 722.95 466.111 738.881C475.274 739.05 485.449 740.119 494.286 737.276C498.423 735.561 500.905 733.765 502.728 729.539C504.522 725.378 504.616 720.054 502.728 715.905C500.923 711.938 497.741 709.819 493.723 708.442C487.872 706.437 481.169 706.465 475.065 706.723Z"/>
	<path fill="#7A4F00" d="M661.905 794.047L661.539 690.927Q673.573 690.777 685.606 690.998C689.87 696.107 693.339 702.48 697.135 708.012C703.632 717.48 710.286 726.857 716.601 736.447C723.348 746.696 729.673 757.234 737.026 767.071L736.959 690.973Q745.971 690.793 754.981 691.018L755.118 756.202C755.15 768.707 755.71 781.523 754.84 793.996C747.407 793.761 739.936 793.898 732.498 793.891C725.659 786.287 720.108 776.311 714.442 767.75Q697.615 741.8 679.928 716.429C678.648 742.132 679.552 768.263 679.524 794.008Q670.714 793.943 661.905 794.047Z"/>
</svg>
